<svg id="Dimensions" xmlns="http://www.w3.org/2000/svg" viewBox="0 0 357.25 116.68"><defs><style>.cls-1{fill:#fd0;stroke-width:0}</style></defs><circle cx="145.37" cy="18.19" r="12.82" style="fill:#000;stroke-width:0"/><path class="cls-1" d="M155.8 10.71v7.67c0 .49-.02.96-.08 1.42v.02c-.03 1.31-.41 2.37-.99 3.22-.07.11-.14.22-.22.32 0 0 0 .02-.02.02v.01c-.17.23-.36.45-.56.65l-.1.1c-.21.2-.44.38-.69.54-.01 0-.03.02-.04.03-.1.06-.21.13-.32.19-.27.11-.54.21-.81.29-.06.02-.12.03-.18.05a6.575 6.575 0 0 1-1.01.22l-.38.06c-.17.02-.34.03-.51.04-.07 0-.14.01-.21.02-1.22.03-2.45-.2-3.63-.7-.53-.23-1.06-.51-1.57-.85-.56-.37-1.3-.37-1.86 0-2.23 1.47-4.7 1.88-7.05 1.29-.48-.12-.8-.56-.8-1.05 0-.7.66-1.22 1.34-1.05 1.89.46 3.86 0 5.75-1.53s-.02-.03-.03-.04a12.7 12.7 0 0 1-1.13-1.52c-.17-.25-.32-.51-.45-.77-.66-1.25-1.01-2.51-1.07-3.73v-.32c-.02-2.06.8-4 2.37-5.59l.06-.06.09-.09c.26-.26.53-.49.8-.7.61-.47 1.48-.47 2.09 0 .27.21.54.44.8.7.03.02.06.05.09.09l.06.06c1.57 1.6 2.39 3.54 2.37 5.59v.32c-.06 1.22-.41 2.48-1.07 3.73-.13.26-.28.52-.45.77-.32.51-.7 1.02-1.13 1.52l-.03.03c1.68 1.36 3.42 1.88 5.11 1.66 1.1-.18 2.04-.74 2.63-1.7.02-.03.03-.06.05-.09a4.863 4.863 0 0 0 .35-1.07c.04-.19.08-.38.11-.58.02-.12.04-.25.05-.37.03-.33.05-.66.05-1.02V8.34a12.928 12.928 0 0 0-8.27-2.97c-7.18 0-13 5.82-13 13s5.82 13 13 13 13-5.82 13-13c0-2.85-.92-5.48-2.47-7.63Z"/><path class="cls-1" d="M144.37 11.62c-.11-.13-.23-.25-.34-.38l-.02-.02a.664.664 0 0 0-.94 0s-.02.03-.02.03c-.12.13-.23.25-.34.38-1.56 1.87-1.76 4.43-.12 7.09.22.35.47.71.76 1.07.06.08.13.15.19.23l.02-.02.2-.21c.29-.36.54-.72.76-1.07 1.64-2.66 1.44-5.22-.12-7.09ZM140.59 22.52c.4.13.84.3 1.31.5.53.24.99.49 1.4.73.11-.01.24-.02.39 0 .23.02.42.09.54.15-.33-.23-.69-.51-1.05-.83-.54-.48-.99-.96-1.34-1.4-.19.15-.41.31-.64.47-.21.14-.41.27-.61.38Z"/></svg>
