<svg width="17" height="24" viewBox="0 0 17 24" fill="none" xmlns="http://www.w3.org/2000/svg">
<path d="M11.332 23.3C10.804 23.3 10.396 23.072 10.108 22.616C9.844 22.16 9.712 21.632 9.712 21.032C9.712 20.312 9.844 19.484 10.108 18.548C10.372 17.636 10.708 16.7 11.116 15.74C11.524 14.756 11.944 13.808 12.376 12.896C12.832 11.984 13.228 11.168 13.564 10.448C13.924 9.728 14.164 9.176 14.284 8.792C14.428 8.36 14.5 8.036 14.5 7.82C14.5 7.58 14.416 7.46 14.248 7.46C14.056 7.46 13.768 7.616 13.384 7.928C13.024 8.216 12.676 8.54 12.34 8.9C12.004 9.26 11.764 9.524 11.62 9.692C10.828 10.556 10.132 11.516 9.532 12.572C8.932 13.628 8.548 14.528 8.38 15.272C8.356 15.392 8.32 15.608 8.272 15.92C8.224 16.208 8.116 16.352 7.948 16.352C7.78 16.352 7.648 16.268 7.552 16.1C7.48 15.932 7.432 15.752 7.408 15.56C7.384 15.44 7.36 15.212 7.336 14.876C7.336 14.516 7.336 14.252 7.336 14.084C7.336 13.052 7.444 12.02 7.66 10.988C7.876 9.932 8.116 8.924 8.38 7.964C8.668 6.98 8.92 6.08 9.136 5.264C9.352 4.448 9.46 3.752 9.46 3.176C9.46 2.792 9.388 2.48 9.244 2.24C9.124 1.976 8.968 1.844 8.776 1.844C8.488 1.844 8.152 2.084 7.768 2.564C7.408 3.044 7.036 3.692 6.652 4.508C6.268 5.324 5.908 6.224 5.572 7.208C5.26 8.192 4.996 9.188 4.78 10.196C4.588 11.204 4.492 12.152 4.492 13.04C4.492 13.544 4.528 14.06 4.6 14.588C4.696 15.116 4.744 15.584 4.744 15.992C4.744 16.304 4.696 16.532 4.6 16.676C4.528 16.82 4.336 16.892 4.024 16.892C3.448 16.892 3.088 16.328 2.944 15.2C2.776 14.216 2.596 13.1 2.404 11.852C2.236 10.604 2.02 9.5 1.756 8.54C1.684 8.276 1.6 8 1.504 7.712C1.408 7.424 1.228 7.16 0.964 6.92C0.94 6.872 0.88 6.824 0.784 6.776C0.688 6.728 0.64 6.68 0.64 6.632C0.64 6.536 0.772 6.488 1.036 6.488C1.396 6.488 1.732 6.692 2.044 7.1C2.356 7.484 2.632 7.964 2.872 8.54C3.112 9.116 3.316 9.692 3.484 10.268C3.676 10.82 3.82 11.264 3.916 11.6C4.132 10.28 4.372 9.08 4.636 8C4.9 6.896 5.236 5.828 5.644 4.796C5.932 4.1 6.268 3.428 6.652 2.78C7.036 2.132 7.468 1.604 7.948 1.196C8.428 0.763999 8.932 0.547999 9.46 0.547999C9.796 0.547999 10.192 0.727999 10.648 1.088C11.128 1.448 11.368 2.024 11.368 2.816C11.368 3.176 11.272 3.608 11.08 4.112C10.912 4.592 10.72 5.132 10.504 5.732C10.192 6.572 9.856 7.52 9.496 8.576C9.136 9.608 8.824 10.556 8.56 11.42C8.296 12.284 8.14 12.884 8.092 13.22C8.044 13.604 8.008 13.928 7.984 14.192C7.984 14.432 7.984 14.66 7.984 14.876C8.128 14.252 8.44 13.532 8.92 12.716C9.424 11.876 9.88 11.168 10.288 10.592C10.744 9.944 11.224 9.332 11.728 8.756C12.256 8.156 12.796 7.676 13.348 7.316C13.924 6.932 14.488 6.74 15.04 6.74C15.304 6.74 15.532 6.812 15.724 6.956C15.916 7.1 16.012 7.376 16.012 7.784C16.012 8.336 15.832 8.972 15.472 9.692C15.136 10.388 14.716 11.108 14.212 11.852C13.732 12.572 13.288 13.28 12.88 13.976C12.352 14.888 11.86 15.872 11.404 16.928C10.972 17.96 10.756 19.028 10.756 20.132C10.756 21.044 10.864 21.704 11.08 22.112C11.32 22.52 11.572 22.724 11.836 22.724C12.004 22.724 12.172 22.664 12.34 22.544C12.532 22.424 12.688 22.316 12.808 22.22C12.856 22.172 12.928 22.1 13.024 22.004C13.12 21.932 13.204 21.896 13.276 21.896C13.372 21.896 13.384 21.992 13.312 22.184C13.288 22.28 13.216 22.376 13.096 22.472C12.976 22.592 12.892 22.676 12.844 22.724C12.388 23.108 11.884 23.3 11.332 23.3Z" fill="black"/>
</svg>
